<?xml version="1.0" encoding="utf-8"?>
<!-- Generator: Adobe Illustrator 15.0.0, SVG Export Plug-In . SVG Version: 6.00 Build 0)  -->
<!DOCTYPE svg PUBLIC "-//W3C//DTD SVG 1.1//EN" "http://www.w3.org/Graphics/SVG/1.1/DTD/svg11.dtd">
<svg version="1.1" id="Layer_1" xmlns="http://www.w3.org/2000/svg" xmlns:xlink="http://www.w3.org/1999/xlink" x="0px" y="0px"
	 width="32px" height="32px" viewBox="0 0 32 32" enable-background="new 0 0 32 32" xml:space="preserve">
<path d="M2,7.5c0.4,0,0.777,0.156,1.061,0.439L16,20.879L28.94,7.94C29.223,7.657,29.6,7.5,30,7.5s0.777,0.156,1.061,0.439
	S31.5,8.6,31.5,9s-0.156,0.777-0.439,1.061l-14,14C16.778,24.344,16.401,24.5,16,24.5s-0.777-0.156-1.061-0.439l-14-14
	C0.657,9.778,0.5,9.401,0.5,9S0.657,8.223,0.94,7.94S1.6,7.5,2,7.5z"/>
</svg>
