<?xml version="1.0" encoding="utf-8"?>
<!-- Generator: Adobe Illustrator 15.0.0, SVG Export Plug-In . SVG Version: 6.00 Build 0)  -->
<!DOCTYPE svg PUBLIC "-//W3C//DTD SVG 1.1//EN" "http://www.w3.org/Graphics/SVG/1.1/DTD/svg11.dtd">
<svg version="1.1" id="Layer_1" xmlns="http://www.w3.org/2000/svg" xmlns:xlink="http://www.w3.org/1999/xlink" x="0px" y="0px"
	 width="32px" height="32px" viewBox="0 0 32 32" enable-background="new 0 0 32 32" xml:space="preserve">
<path d="M24.5,2c0,0.4-0.156,0.777-0.439,1.061L11.122,16L24.061,28.94C24.344,29.223,24.5,29.6,24.5,30s-0.156,0.777-0.439,1.061
	S23.401,31.5,23,31.5s-0.777-0.156-1.061-0.439l-14-14C7.657,16.778,7.5,16.401,7.5,16s0.156-0.777,0.439-1.061l14-14
	C22.223,0.657,22.6,0.5,23,0.5s0.777,0.156,1.061,0.439S24.5,1.6,24.5,2z"/>
</svg>
