<?xml version="1.0" encoding="utf-8"?>
<!-- Generator: Adobe Illustrator 15.0.0, SVG Export Plug-In . SVG Version: 6.00 Build 0)  -->
<!DOCTYPE svg PUBLIC "-//W3C//DTD SVG 1.1//EN" "http://www.w3.org/Graphics/SVG/1.1/DTD/svg11.dtd">
<svg version="1.1" id="Layer_1" xmlns="http://www.w3.org/2000/svg" xmlns:xlink="http://www.w3.org/1999/xlink" x="0px" y="0px"
	 width="32px" height="32px" viewBox="0 0 32 32" enable-background="new 0 0 32 32" xml:space="preserve">
<path d="M7.5,30c0-0.4,0.156-0.777,0.439-1.061L20.879,16L7.94,3.061C7.657,2.778,7.5,2.401,7.5,2S7.657,1.223,7.94,0.94
	S8.6,0.5,9,0.5s0.777,0.156,1.061,0.439l14,14C24.344,15.223,24.5,15.6,24.5,16s-0.156,0.777-0.439,1.061l-14,14
	C9.778,31.344,9.401,31.5,9,31.5s-0.777-0.156-1.061-0.439S7.5,30.401,7.5,30z"/>
</svg>
