<?xml version="1.0" encoding="utf-8"?>
<!-- Generator: Adobe Illustrator 15.0.0, SVG Export Plug-In . SVG Version: 6.00 Build 0)  -->
<!DOCTYPE svg PUBLIC "-//W3C//DTD SVG 1.1//EN" "http://www.w3.org/Graphics/SVG/1.1/DTD/svg11.dtd">
<svg version="1.1" id="Layer_1" xmlns="http://www.w3.org/2000/svg" xmlns:xlink="http://www.w3.org/1999/xlink" x="0px" y="0px"
	 width="32px" height="32px" viewBox="0 0 32 32" enable-background="new 0 0 32 32" xml:space="preserve">
<path d="M30,24.5c-0.4,0-0.777-0.156-1.061-0.439L16,11.122L3.061,24.061C2.778,24.344,2.401,24.5,2,24.5s-0.777-0.156-1.061-0.439
	S0.5,23.401,0.5,23s0.156-0.777,0.439-1.061l14-14C15.223,7.657,15.6,7.5,16,7.5s0.777,0.156,1.061,0.439l14,14
	C31.344,22.223,31.5,22.6,31.5,23s-0.156,0.777-0.439,1.061S30.401,24.5,30,24.5z"/>
</svg>
